<?xml version="1.0" encoding="utf-8"?>
<!-- Generator: Adobe Illustrator 25.0.0, SVG Export Plug-In . SVG Version: 6.00 Build 0)  -->
<svg version="1.1" id="Capa_1" xmlns="http://www.w3.org/2000/svg" xmlns:xlink="http://www.w3.org/1999/xlink" x="0px" y="0px"
	 viewBox="0 0 245.9 16" style="enable-background:new 0 0 245.9 16;" xml:space="preserve">
<style type="text/css">
	.st0{fill:none;stroke:#000000;stroke-width:0.6286;stroke-miterlimit:10;}
	.st1{fill:#FFFFFF;}
	.st2{font-family:'MyriadPro-Regular';}
	.st3{font-size:8.3584px;}
</style>
<path class="st0" d="M242,15.7H3.9c-2,0-3.6-1.6-3.6-3.6V3.9c0-2,1.6-3.6,3.6-3.6H242c2,0,3.6,1.6,3.6,3.6v8.2
	C245.6,14.1,244,15.7,242,15.7z"/>
<path d="M195.8,13.3H6.2c-2,0-3.6-1.6-3.6-3.6V6.3c0-2,1.6-3.6,3.6-3.6h189.7c2,0,3.6,1.6,3.6,3.6v3.4
	C199.4,11.7,197.8,13.3,195.8,13.3z"/>
<text transform="matrix(1 0 0 1 178.8175 11.009)" class="st1 st2 st3">70%</text>
</svg>
