<?xml version="1.0" encoding="utf-8"?>
<!-- Generator: Adobe Illustrator 25.0.0, SVG Export Plug-In . SVG Version: 6.00 Build 0)  -->
<svg version="1.1" id="Capa_1" xmlns="http://www.w3.org/2000/svg" xmlns:xlink="http://www.w3.org/1999/xlink" x="0px" y="0px"
	 viewBox="0 0 248.2 18.1" style="enable-background:new 0 0 248.2 18.1;" xml:space="preserve">
<style type="text/css">
	.st0{fill:none;stroke:#F5F5DC;stroke-width:1.5;stroke-miterlimit:10;}
	.st1{fill:#F5F5DC;}
	.st2{fill:#1A1A1A;}
</style>
<path class="st0" d="M243.1,16.6H5c-2,0-3.6-1.6-3.6-3.6V4.8c0-2,1.6-3.6,3.6-3.6h238.1c2,0,3.6,1.6,3.6,3.6V13
	C246.7,15,245.1,16.6,243.1,16.6z"/>
<path class="st1" d="M196.9,14.2H7.3c-2,0-3.6-1.6-3.6-3.6V7.2c0-2,1.6-3.6,3.6-3.6H197c2,0,3.6,1.6,3.6,3.6v3.4
	C200.5,12.6,198.9,14.2,196.9,14.2z"/>
<g>
	<path class="st2" d="M182.1,5.8v0.6l-2.7,5.7h-0.9l2.7-5.5l0,0h-3.1V5.8H182.1z"/>
	<path class="st2" d="M187.2,8.8c0,2.1-0.8,3.3-2.2,3.3c-1.2,0-2.1-1.1-2.1-3.2s0.9-3.2,2.2-3.2C186.4,5.7,187.2,6.9,187.2,8.8z
		 M183.8,8.9c0,1.6,0.5,2.5,1.3,2.5c0.9,0,1.3-1,1.3-2.6c0-1.5-0.4-2.5-1.3-2.5C184.3,6.3,183.8,7.2,183.8,8.9z"/>
	<path class="st2" d="M190.8,7.5c0,1.3-0.7,2-1.5,2s-1.5-0.6-1.5-1.9c0-1.2,0.7-2,1.5-2C190.2,5.7,190.8,6.4,190.8,7.5z M188.5,7.6
		c0,0.8,0.3,1.4,0.8,1.4c0.6,0,0.8-0.6,0.8-1.4s-0.2-1.4-0.8-1.4C188.8,6.2,188.5,6.8,188.5,7.6z M189.2,12.1l3.7-6.5h0.5l-3.7,6.5
		H189.2z M194.8,10.1c0,1.3-0.7,2-1.5,2s-1.5-0.6-1.5-1.9c0-1.2,0.7-2,1.5-2C194.3,8.3,194.8,8.9,194.8,10.1z M192.6,10.2
		c0,0.8,0.3,1.4,0.8,1.4c0.6,0,0.8-0.6,0.8-1.4c0-0.8-0.2-1.4-0.8-1.4S192.6,9.4,192.6,10.2z"/>
</g>
</svg>
