<?xml version="1.0" encoding="utf-8"?>
<!-- Generator: Adobe Illustrator 25.0.0, SVG Export Plug-In . SVG Version: 6.00 Build 0)  -->
<svg version="1.1" id="Capa_1" xmlns="http://www.w3.org/2000/svg" xmlns:xlink="http://www.w3.org/1999/xlink" x="0px" y="0px"
	 viewBox="0 0 24 24" style="enable-background:new 0 0 24 24;" xml:space="preserve">
<style type="text/css">
	.st0{fill:#1A1A1A;}
</style>
<path class="st0" d="M22,7h-7V5h7V7z M23.7,17c-0.4,1.3-2,3-5.1,3S13,18.3,13,14.3c0-3.9,2.3-5.9,5.5-5.9c3.1,0,5,1.8,5.4,4.4
	C24,13.3,24,14,24,15h-8c0.1,3.2,3.5,3.3,4.6,2H23.7z M16,13h5c-0.1-1.5-1.1-2.2-2.5-2.2S16.3,11.5,16,13z M6.5,20H0V5h7
	c5.5,0.1,5.6,5.4,2.7,6.9C13.1,13.2,13.2,20,6.5,20z M3,11h3.6c2.5,0,2.9-3-0.3-3H3V11z M6.4,14H3v3h3.3C9.4,17,9.2,14,6.4,14z"/>
</svg>
