<?xml version="1.0" encoding="utf-8"?>
<!-- Generator: Adobe Illustrator 25.0.0, SVG Export Plug-In . SVG Version: 6.00 Build 0)  -->
<svg version="1.1" id="Layer_1" xmlns="http://www.w3.org/2000/svg" xmlns:xlink="http://www.w3.org/1999/xlink" x="0px" y="0px"
	 viewBox="0 0 904.6 904.6" style="enable-background:new 0 0 904.6 904.6;" xml:space="preserve">
<style type="text/css">
	.st0{fill:#390808;}
	.st1{fill:#FF9D08;}
</style>
<path class="st0" d="M813.9,904.6H90.8C40.6,904.6,0,864,0,813.9V90.8C0,40.6,40.6,0,90.8,0h723.1c50.1,0,90.8,40.6,90.8,90.8v723.1
	C904.6,864,864,904.6,813.9,904.6z"/>
<g id="XMLID_449_">
	<g>
		<path id="XMLID_25_" class="st1" d="M79.5,768.1H218c3.7,0,6.9-2.5,7.9-6l40.4-145.6H423l43.8,145.7c1,3.5,4.2,5.9,7.9,5.9h143.7
			c0,0,0.1,0,0.1,0c4.5,0,8.2-3.7,8.2-8.2c0-1.2-0.3-2.4-0.7-3.4L443.1,166.9c-1.1-3.4-4.3-5.8-7.9-5.8H260c-3.6,0-6.8,2.4-7.9,5.8
			L71.6,757.5c-0.8,2.5-0.3,5.2,1.3,7.3C74.4,766.9,76.9,768.1,79.5,768.1z M398.9,500.2H290.1l32.1-114.8
			c5.8-20.7,11.3-45.2,16.7-68.9c1.2-5.4,2.4-10.8,3.6-16c7.1,28.4,14.8,59,22.6,84.9L398.9,500.2z"/>
		<path id="XMLID_24_" class="st1" d="M687.6,323.2c-4.5,0-8.2,3.7-8.2,8.2v428.5c0,4.5,3.7,8.2,8.2,8.2h133.2
			c4.5,0,8.2-3.7,8.2-8.2V331.4c0-4.5-3.7-8.2-8.2-8.2H687.6z"/>
		<path id="XMLID_23_" class="st1" d="M753.3,287c46.4,0,80.1-31.5,80.1-75c-1-44.5-33.6-75.5-79.2-75.5c-23.3,0-44,8-58.2,22.6
			c-13.4,13.7-20.5,32.5-20.1,53.1c-0.4,19.9,6.7,38.4,20.1,52.1C710.3,279,730.6,287,753.3,287z"/>
	</g>
</g>
<image style="overflow:visible;" width="133" height="112" xlink:href="5F7BFAD1.jpg"  transform="matrix(1 0 0 1 -315.3 155.7829)">
</image>
</svg>
