<?xml version="1.0" encoding="utf-8"?>
<!-- Generator: Adobe Illustrator 25.0.0, SVG Export Plug-In . SVG Version: 6.00 Build 0)  -->
<svg version="1.1" id="Layer_1" xmlns="http://www.w3.org/2000/svg" xmlns:xlink="http://www.w3.org/1999/xlink" x="0px" y="0px"
	 viewBox="0 0 904.6 904.6" style="enable-background:new 0 0 904.6 904.6;" xml:space="preserve">
<style type="text/css">
	.st0{fill:#49021F;}
	.st1{fill:#FF3366;}
</style>
<path class="st0" d="M813.9,904.6H90.8C40.6,904.6,0,864,0,813.9V90.8C0,40.6,40.6,0,90.8,0h723.1c50.1,0,90.8,40.6,90.8,90.8v723.1
	C904.6,864,864,904.6,813.9,904.6z"/>
<g>
	<g>
		<g>
			<g>
				<g>
					<path class="st0" d="M649.7,512.6v57c0,11.7-1,21.4-3.5,31.2c-8.2,38.3-39.3,65-78.5,65c-56.1,0-92.7-46.4-92.7-120.3
						c0-68.7,32.1-123.9,93.6-123.9c41.9,0,71.3,30.3,79.3,66.7C648.7,495.6,649.7,505.3,649.7,512.6z"/>
				</g>
				<path class="st1" d="M785.2,633.6V131H649.8v236.2H648c-19.6-30.3-61.5-49.1-114.9-49.1c-104.3,0-196.2,84.7-195.3,231.7
					c0,135.5,82.9,223.8,186.3,223.8c56.2,0,108.6-25,136.3-73.9h1.9l6.2,64.1l120.3,0.1C787,734.4,785.2,682.8,785.2,633.6z
					 M649.7,569.6c0,11.7-1,21.4-3.5,31.2c-8.2,38.3-39.3,65-78.5,65c-56.1,0-92.7-46.4-92.7-120.3c0-68.7,32.1-123.9,93.6-123.9
					c41.9,0,71.3,30.3,79.3,66.7c0.8,7.3,1.8,17,1.8,24.2V569.6z"/>
				<rect x="115.8" y="163.1" class="st1" width="136.3" height="600.7"/>
			</g>
		</g>
	</g>
</g>
</svg>
