<?xml version="1.0" encoding="utf-8"?>
<!-- Generator: Adobe Illustrator 25.0.0, SVG Export Plug-In . SVG Version: 6.00 Build 0)  -->
<svg version="1.1" id="Capa_1" xmlns="http://www.w3.org/2000/svg" xmlns:xlink="http://www.w3.org/1999/xlink" x="0px" y="0px"
	 viewBox="0 0 443.1 120.8" style="enable-background:new 0 0 443.1 120.8;" xml:space="preserve">
<g>
	<g>
		<path d="M443.2,101.9c-8.6-2.6-18.2-1.3-27-0.6c-11.7,0.9-23.5,1.8-35.2,2.7c-0.5,0-0.7,0.5-0.5,0.9c0.4,1,0.9,1.9,1.3,2.9
			c0.4,0.8,1.3,2.1,1.2,2.9c-0.1,1.9-2.7,3.9-4.3,4.6c-2.2,1-4.8,1.2-7.2,0.6c-10.2-2.8-13.9-15.1-23.2-19.6
			c-0.5-0.2-0.9,0.1-0.9,0.5c-1.6,12.5-15.6,21.6-27.7,18.4c-14.3-3.7-19.7-20.5-29.4-30c-5.7-5.6-17.5-11.9-24.8-5.4
			c-5.3,4.7-6,13.1-8.3,19.4c-1.4,4-3.5,8-7.4,10c-7,3.6-16.3,0.7-20.7-5.6c-0.2-0.3-0.7-0.4-1-0.1c-8.8,8-18.8,17-31.5,16.6
			c-5.8-0.1-11.3-2.6-14.8-7.3c-3.2-4.4-4.2-10.4-1.3-15.2c2.6-4.4,8.1-7.4,13.2-5.8c4.9,1.5,8.1,6.8,7.9,11.9
			c-0.2,5.5-4.2,10.2-9,12.4c-5.5,2.5-11.7,1.6-17.1-0.6c-10.6-4.2-18.5-13.1-29.4-16.6c-11.6-3.8-24.2-0.2-35.7,2.3
			c-4.9,1-9.2,2.5-12.8,6.2c-1.8,1.8-3.2,4-5,5.8c-2.3,2.3-4.9,4.2-8,5.3c-5.6,2-11.4,0.3-14.7-4.7c-2.1-3.2-3.2-6.9-4.9-10.3
			c-4.7-9.3-14.5-11.3-24.1-10.4c-5.8,0.6-11.5,1.9-17.2,3.1c-7.4,1.6-14.8,3.1-22.2,4.7c-0.8,0.2-0.5,1.4,0.3,1.2
			c7.1-1.5,14.2-3,21.4-4.5c6.2-1.3,12.4-2.9,18.7-3.3c5.2-0.4,10.9-0.2,15.6,2.5c4.4,2.5,6.5,6.9,8.4,11.4
			c1.6,3.7,3.3,7.7,6.7,10.1c4.4,3.1,10.1,2.7,14.7,0.4c2.5-1.2,4.6-3,6.6-4.9c2-2.1,3.6-4.5,5.8-6.4c5.3-4.6,12.7-5.2,19.3-6.6
			c7-1.4,14.1-2.7,21.3-1.8c6.6,0.8,12.4,3.9,17.9,7.6c9.5,6.3,20.7,15.2,32.9,11.6c9.2-2.6,15.3-13,10.2-21.8
			c-5-8.6-16.4-7.5-21.4,0.4c-5.6,8.7,0.8,19.9,9.7,23.2c11.6,4.4,23.7-2,32.5-9.3c2.5-2,4.8-4.2,7.2-6.4c-0.3,0-0.7-0.1-1-0.1
			c6,8.5,20.2,11.1,27,2.1c4.9-6.4,4.9-15.1,8.7-22c6-11.1,20.2-4.1,26.7,2.7c9.4,9.8,15.3,26.6,30.1,29.6
			c12.7,2.5,26.5-6.9,28.2-19.9c-0.3,0.2-0.6,0.4-0.9,0.5c9.8,4.7,14.7,20.6,27,20.1c3.8-0.1,8.6-2.3,9.5-6.4c0.2-1.2-0.4-2-0.9-3.1
			c-0.6-1.2-1.1-2.4-1.7-3.6c-0.2,0.3-0.4,0.6-0.5,0.9c11.5-0.9,22.9-1.7,34.4-2.6c8.9-0.7,18.8-2.2,27.5,0.5
			C443.7,103.3,444,102.1,443.2,101.9L443.2,101.9z"/>
	</g>
</g>
<path d="M12.2,99.7c2.9-0.9,5.7-1.6,8.6-2.3c2.8-0.7,5.5-1.5,8.3-2.1c1-0.2,2-0.3,2.8-1.2c10.3-10.3,20.6-20.5,30.9-30.7
	c8.1-8,16.2-15.9,24.4-23.9c1.9-1.9,4-3.6,5.8-5.5c1.9-1.9,4.1-3.3,6-5.2c1.3,0,1.3-1.3,1.9-1.9c2.3-2.3,4.5-4.7,6.9-7
	c1.6-1.5,1.9-3.3,1.5-5.2c-0.7-3.3-2.3-6.2-4.5-8.8C101.1,1.7,96.4,0.2,91,0c-0.8,0-1.4,0.2-2.1,0.8c-3.7,3.5-6.7,7.4-9.3,11.8
	c-0.3,0.5-0.7,1.1-1.2,1.5c-4.5,4.2-8.9,8.6-13.7,12.7c-5.1,4.3-9.7,9.3-14.5,13.9C39.8,50.8,29.3,61,18.8,71.1
	c-4,3.8-7.6,7.9-10.6,12.5c-3.4,5.3-6,11.1-8.1,17c-0.1,0.4-0.2,1.1,0,1.4c0.2,0.3,0.9,0.3,1.4,0.2c1.6-0.1,3.2-0.5,4.8-0.5
	L12.2,99.7z M69.4,25.1c0.6-0.1,1.1,0,1.7,0c0,0.1,0,0.2,0.1,0.4c-0.5,0.2-1,0.4-1.5,0.5c-0.2,0-0.4-0.2-0.7-0.3
	C69.1,25.4,69.2,25.1,69.4,25.1z M17.8,73.3c16-15.3,32.1-30.7,48.1-46.1c1-1,1.7,0,2.7-0.1C52,44.3,34.2,59.8,17.1,76.4
	C17,75.2,16.8,74.2,17.8,73.3z M18.3,76.8c3.7-3,7.4-6,10.9-9.3c5.3-5,10.5-10.1,15.6-15.2C53,44.4,61,36.4,69,28.4
	c0.6-0.5,1-0.7,1.6-0.3c1,0.6,2,1.1,3.1,1.7c-0.7,0.7-1.3,1.3-2,1.9c-15,14.7-30,29.4-45.1,44.1c-0.4,0.4-0.9,0.8-1.5,1
	c-2.7,1.3-5.5,2.5-8.3,3.8C16.6,79,17,77.8,18.3,76.8z M83.4,34.4c0.3,0.5,0.5,0.9,0.8,1.4c-0.8,0.2-1.5,0.3-2.2,0.5
	c0-0.1-0.1-0.1-0.1-0.2C82.4,35.6,82.8,35.1,83.4,34.4z M80.7,35.8c-0.3-0.4-0.5-0.8-0.7-1.2c0.7-0.1,1.2-0.2,2-0.3
	C81.5,34.9,81.1,35.3,80.7,35.8z M79.9,33.5c0.5-0.7,0.9-1.2,1.4-1.9c0.4,0.5,0.7,0.9,1.3,1.5C81.6,33.2,80.9,33.3,79.9,33.5z
	 M77.9,31c0.4-0.6,0.8-1.1,1.2-1.6c0.5,0.4,0.8,0.8,1.3,1.2C79.5,30.7,78.8,30.8,77.9,31z M76.8,29.1c-0.1-0.1-0.2-0.1-0.2-0.2
	c0.1-0.4,0.2-0.7,0.4-1.2c0.4,0.3,0.7,0.4,1.2,0.8C77.6,28.8,77.2,29,76.8,29.1z M79.4,35.5C60.4,51.9,41.5,68.2,23.7,86
	c0.1-0.3,0.1-0.5,0.1-0.7c1-2.7,2.1-5.3,3.2-8c0.1-0.2,0.3-0.4,0.5-0.6c15.5-15.2,31.1-30.4,46.6-45.6c0.2-0.2,0.4-0.3,0.7-0.6
	C76.4,32.2,77.8,33.8,79.4,35.5z M72.6,27.9c0.4-2.1,0.8-2.2,2.5-1C74.3,27.2,73.5,27.5,72.6,27.9z M27.6,94.5
	c-5.2,1.3-10.5,2.6-15.7,4c-0.7,0.2-1.2,0.1-1.8-0.4c-1.7-1.5-3.4-3-5.1-4.6c-0.2-0.2-0.4-0.7-0.3-1c2.8-6.1,6.4-11.7,10.9-16.7
	c0,0,0.1-0.1,0.2-0.1c0,1.7,0,3.3,0,5c0,1.4,0.3,1.6,1.6,1c2.4-1.1,4.8-2.2,7.2-3.2c0.3-0.1,0.6-0.2,1.1-0.4
	c-0.8,1.9-1.5,3.6-2.2,5.3c-0.5,1.3-1.1,2.7-1.7,4c-0.3,0.7-0.1,1.1,0.6,1.2c0.5,0.1,1,0.1,1.5,0.1c1.9-0.2,3.8-0.4,5.9-0.7
	c0,1.3,0,2.5,0,3.8C29.8,94,29.8,94,27.6,94.5z M29.1,86.9c-1.5,0.2-3,0.4-4.5,0.5c-0.1,0-0.2,0-0.4,0c2-3.1,48.2-45.2,55.7-50.7
	c0.3,0.4,0.5,0.8,0.7,1.2c1.2,2.2,1.2,2.4-0.6,4.2c-15.5,15.7-32,30.4-49.3,44.1C30.3,86.5,29.7,86.8,29.1,86.9z M81.4,43.5
	C71.8,53,62.1,62.5,52.5,72.1c-6.9,6.8-13.7,13.6-20.6,20.4c-0.3,0.3-0.5,0.6-0.7,0.9c-0.1-0.1-0.3-0.1-0.4-0.2c0-1.8,0-3.5,0-5.3
	c0-0.3,0.4-0.6,0.6-0.8c8.6-7.2,17.3-14.3,25.6-21.8c8.1-7.3,15.9-15,23.8-22.6c0.2-0.2,0.5-0.4,0.7-0.7
	C82.2,42.7,81.8,43.1,81.4,43.5z M81.6,37.6c0.6-0.2,1.2-0.3,1.7-0.4c0,0.1,0.1,0.1,0.1,0.2c-0.4,0.5-0.7,1.1-1.2,1.7
	C82,38.5,81.8,38.1,81.6,37.6z M85.2,39.2c-0.4,0.4-1.2,0.5-1.8,0.8c-0.1-0.1-0.1-0.2-0.2-0.4c0.5-0.7,1-1.4,1.5-2.1
	c0.1,0,0.2,0,0.3,0C85.1,38.1,85.4,38.9,85.2,39.2z M87.4,37.8c-0.3,0.2-0.6,0.5-0.9,0.8c-2.9-7.9-8.2-12.8-16.5-14.8
	c0.8-0.8,1.6-1.5,2.3-2.2c0.1-0.1,0.5-0.1,0.7,0c7.7,1.6,12.8,6,15.2,13.6C88.5,36.3,88.4,37.1,87.4,37.8z M80.1,21.2
	c0.1-0.5,0.1-1,0.2-1.7c0.4,0.2,0.7,0.3,1.2,0.5c-0.5,0.5-0.8,0.9-1.2,1.3C80.2,21.3,80.2,21.2,80.1,21.2z M85.3,24.6
	c0.1-0.6,0.3-1.1,0.4-1.8c0.3,0.2,0.5,0.4,0.9,0.6c-0.4,0.5-0.7,0.9-1.1,1.3C85.4,24.7,85.4,24.7,85.3,24.6z M89,28.9
	c0.1,0,0.1,0.1,0.2,0.1c-0.4,0.8-0.7,1.6-1.2,2.5c-0.4-0.7-0.6-1.1-0.9-1.7C87.8,29.5,88.4,29.2,89,28.9z M87.7,28.3
	c0.4-0.9,0.7-1.6,1.1-2.4c0.4,0.6,0.7,0.9,1,1.4C89.2,27.6,88.6,27.8,87.7,28.3z M89.5,35c-0.1,0-0.2,0-0.2,0
	c-0.2-0.6-0.4-1.2-0.6-1.9c0.6-0.2,1.2-0.5,2.1-0.8C90.3,33.3,89.9,34.1,89.5,35z M89.2,31.7c0.5-1.1,0.9-2,1.4-3.1
	c0.4,0.8,0.7,1.4,1,2.1C90.9,31,90.2,31.3,89.2,31.7z M95.2,30.5c-0.6,0.4-1.1,1-1.7,1.6c-0.1-0.3-0.3-0.6-0.3-0.8
	c-1-2.8-2.5-5.3-4.5-7.4c-0.6-0.6-1.3-1.2-1.8-1.8c-0.3-0.3-0.5-0.7-0.6-1.1c-0.1-0.6-0.3-0.8-0.9-0.5c-0.2,0.1-0.5,0.1-0.6,0
	c-2.3-1.5-4.8-2.6-7.7-3.3c0.7-0.7,1.2-1.3,1.8-1.8c0.2-0.2,0.7-0.2,1-0.2c7.8,1.6,13.2,6.1,15.9,13.6
	C95.9,29.5,95.9,30.1,95.2,30.5z M86.1,15.3c0.6-0.6,1.1-1,1.9-1.8c0,1.1,0.1,1.9,0.1,2.9C87.5,16,86.8,15.7,86.1,15.3z M89.2,14.8
	c0.1,0,0.2-0.1,0.3-0.1c0.5,0.3,1,0.6,1.7,1.1c-0.6,0.3-1.1,0.6-1.6,0.8C89.4,16,89.3,15.4,89.2,14.8z M91.5,16
	c0.6,0.5,1.1,0.9,1.7,1.4c-0.5,0.3-1,0.6-1.6,0.9C91.6,17.5,91.6,16.9,91.5,16z M93.8,18.5l0.4-0.1c0.3,0.3,0.6,0.6,1.1,1.2
	c-0.6,0.2-1,0.3-1.4,0.4C93.8,19.5,93.8,19,93.8,18.5z M95.6,24.6c-0.3-0.5-0.5-0.9-0.8-1.3c0.4-0.2,0.7-0.4,1.3-0.7
	C95.9,23.4,95.8,23.9,95.6,24.6z M97.2,28.2c-0.3-0.7-0.5-1.2-0.9-2.2c0.7,0,1.5-0.1,1.6,0.1C98.5,27,97.8,27.6,97.2,28.2z
	 M96.8,24.7c0.2-0.6,0.3-1.2,0.5-1.7c0.1,0,0.2,0,0.2,0c0.2,0.5,0.4,1,0.7,1.6C97.7,24.7,97.3,24.7,96.8,24.7z M107.5,18.9
	c-2.5,2.4-5,4.9-7.6,7.3c-2.8-8.5-8.8-13.7-18-15.3c1.3-1.5,2.4-2.9,3.6-4.3c1.3-1.4,2.6-2.8,4-4.1c0.4-0.4,1.1-0.7,1.7-0.7
	c6.8-0.5,12.7,3.2,15.1,9.7c0.8,2.1,1,4.3,1.5,6.4C107.8,18.2,107.7,18.7,107.5,18.9z"/>
</svg>
