<?xml version="1.0" encoding="utf-8"?>
<!-- Generator: Adobe Illustrator 25.0.0, SVG Export Plug-In . SVG Version: 6.00 Build 0)  -->
<svg version="1.1" id="Layer_1" xmlns="http://www.w3.org/2000/svg" xmlns:xlink="http://www.w3.org/1999/xlink" x="0px" y="0px"
	 viewBox="0 0 904.6 904.6" style="enable-background:new 0 0 904.6 904.6;" xml:space="preserve">
<style type="text/css">
	.st0{fill:#001E36;}
	.st1{fill:#31A8FF;}
</style>
<path class="st0" d="M813.9,904.6H90.8C40.6,904.6,0,864,0,813.9V90.8C0,40.6,40.6,0,90.8,0h723.1c50.1,0,90.8,40.6,90.8,90.8v723.1
	C904.6,864,864,904.6,813.9,904.6z"/>
<g>
	<g>
		<path class="st1" d="M837.7,619c0,81.5-64.5,141.4-189.6,141.4c-57.4,0-108.3-12.4-141.4-30.4l24.1-97.5c25.1,15.1,77,33,117.3,33
			c41,0,58.1-14.3,58.1-36.7c0-22.3-13.4-33-64.3-50.1c-90.3-30.4-125.3-79.6-124.4-131.5c0-81.3,69.8-143.2,178-143.2
			c51,0,96.6,11.7,123.4,25.1l-24.1,94c-19.7-10.8-57.2-25-94.8-25c-33,0-51.7,13.4-51.7,35.8c0,20.5,16.8,31.3,70.5,50.1
			C801.9,512.6,836.8,554.7,837.7,619z"/>
		<path class="st1" d="M435.5,192.5c-40.2-32.3-100.2-48.3-184.2-48.3c-83.3,0-142.3,5.4-184.3,12.5v594.9h135.1V535.9
			c12.5,1.8,28.6,2.7,46.6,2.7c80.4,0,149.3-19.7,195.8-63.5c35.8-34.1,55.6-84,55.6-143C500,273.1,474.1,222.9,435.5,192.5z
			 M247.7,433.9c-19.7,0-33.9-0.9-45.5-3.5v-178c9.8-2.8,28.6-5.5,56.3-5.5c68,0,106.4,33.1,106.5,88.5
			C364.9,397.2,320.2,433.9,247.7,433.9z"/>
	</g>
</g>
</svg>
