<?xml version="1.0" encoding="utf-8"?>
<!-- Generator: Adobe Illustrator 25.0.0, SVG Export Plug-In . SVG Version: 6.00 Build 0)  -->
<svg version="1.1" id="Capa_1" xmlns="http://www.w3.org/2000/svg" xmlns:xlink="http://www.w3.org/1999/xlink" x="0px" y="0px"
	 viewBox="0 0 178.3 303.5" style="enable-background:new 0 0 178.3 303.5;" xml:space="preserve">
<g>
	<path d="M154.3,37.1c1.5-2.4,3.6-4.5,5-7c4.1-7.3,7.9-14.8,11.9-22.1c1.4-2.6,3.1-5,4.7-7.4c0.3-0.4,1.3-0.4,2-0.5
		c0.1,0.6,0.4,1.2,0.2,1.7c-1.7,3.7-3.4,7.4-5.3,11c-3.4,6.4-6.9,12.8-10.3,19.2c-0.3,0.5-0.4,1-0.5,1.5c-0.2,1.3,0,2.8-0.5,4
		c-1.6,3.7-3.4,7.2-5,10.8c-0.4,0.8-0.5,2-0.2,2.8c3.1,7.4,6.4,14.7,9.6,22.1c3.3,7.8,6.6,15.7,9.7,23.6c0.7,1.8,1.3,4.3,0.7,6
		c-4.5,12.9-9.2,25.8-14.2,38.6c-4.4,11.4-9.2,22.6-13.7,33.9c-8.4,21.3-16.9,42.5-25.2,63.9c-7.2,18.4-14.7,36.7-24.2,54.1
		c-1.5,2.7-2.8,5.6-5.8,7.1c-2.2,1.2-4.4,3.1-6.8,3.3c-3.1,0.2-6.4-0.7-9.5-1.7c-13.6-4.2-27.2-8.5-40.8-12.8
		c-4.4-1.4-8.4-3.5-11.8-6.6c-7.1-6.4-13.6-13.2-19.1-21c-2.3-3.3-5.1-6.4-5.3-10.7c-0.1-1.7-0.3-3.6,0.3-5.1
		c2.2-5.1,4.9-9.9,9.1-13.8c8.1-7.5,14.8-16,19-26.5c5.6-13.7,11.9-27.2,18-40.7c3.9-8.6,7.7-17.2,11.8-25.6
		c3.4-7,6.7-13.9,8.4-21.6c1.5-7,2.6-14.1,4.1-21.1c3.4-15.1,9-29.4,15.8-43.2c4.1-8.4,10.6-13.4,20.5-12.6c9.9,0.9,19.8,1.9,29.7,3
		c4.2,0.5,8.5,1.2,13,1.9C151.3,42.8,152.6,39.8,154.3,37.1z M36.8,199.7C32.2,209.8,26,218.7,19,227.3c-4.2,5.2-7.7,10.9-11.3,16.6
		c-1.7,2.7-0.9,5.5,2.1,6.9c4.2,2,8.5,3.9,12.9,5.5c6.3,2.3,12.6,4.5,19,6.4c4.3,1.3,8.6,2.2,13,2.8c4.3,0.5,7.6-2.1,10.4-5
		c5.6-5.9,10-12.6,13.7-19.8c10-19.5,19.7-39.2,29.9-58.6c6.4-12.1,11.2-24.9,15.8-37.7c2.5-7.1,3.7-14.7,5-22.1
		c2-12,4.9-23.6,9.8-34.9c3.7-8.5,6.6-17.4,9.7-26.2c1.2-3.3,0.4-4.9-3-6.2c-5.4-2-10.8-4-16.4-5.3c-7.3-1.7-14.8-2.9-22.3-4.1
		c-5.9-1-10,1.8-13.1,6.7c-5.4,8.5-8.9,17.8-11.7,27.4c-4.1,13.6-7.5,27.4-12.1,40.8c-3.4,10-8.2,19.6-12.3,29.3
		c-5.2,12.2-10.5,24.5-15.7,36.7c-0.3,0.8-0.4,1.7-0.7,2.5l0,0C40.1,192.7,38.4,196.1,36.8,199.7z M153.6,72.5
		c-2.4,5.8-5.3,11.4-8.2,17c-5.4,10.4-8.4,21.4-8.5,33c-0.1,9.5-2.8,18.2-6.8,26.6c-4,8.3-8.4,16.5-12.2,24.9
		c-4.4,9.8-8.4,19.8-12.6,29.7c-2.5,5.8-4.7,11.7-7.4,17.4c-5.8,12.3-12.2,24.4-20,35.6c-3,4.3-5.7,8.9-10,12
		c-1.7,1.2-3.4,2.3-5.4,3.5c8.1,9.7,16.4,19.5,24.8,29.5c2.6-1.4,5.1-2.8,8-4.4c-8.5-9.9-16.7-19.5-24.9-29.1
		c0.1-0.2,0.3-0.4,0.4-0.6c0.7,0.5,1.6,0.9,2.2,1.6c5.1,5.9,10.2,11.8,15.3,17.7c2.5,2.9,5,5.8,7.7,8.9c2.8-5.3,5.6-10.6,8.3-15.9
		c8.8-17.3,15.2-35.6,22.3-53.6c5.9-15,12-29.9,17.9-44.9c7.3-18.7,14.5-37.5,21.7-56.2c2.9-7.4,5.6-14.9,8.5-22.3
		c1.1-2.7,0.1-5.1-0.9-7.3c-5.1-12.4-10.4-24.7-15.7-37C156.6,63.5,155.4,68.1,153.6,72.5z M1.9,246c-1.1,3-0.3,6.3,2.2,8.3
		c6.2,4.9,13.9,6.7,20.9,9.7c8.6,3.7,17.9,4.3,27,5.8c3.2,0.5,6.5,0.4,9.8,0.3c1.2,0,2.6-0.6,3.5-1.3c2.7-2.4,5.5-4.8,7.7-7.7
		c7.8-10.5,14.6-21.7,20.1-33.6c5.5-11.9,10.3-24.2,15.7-36.2c6.3-14,12.9-27.9,19.5-41.8c4-8.4,6.9-17,7-26.5
		c0.2-14.6,5.1-27.8,12.1-40.6c3.5-6.4,5.7-13.5,8.1-20.4c1.1-3.2,1-6.8-0.6-10c-0.5-1.1-1.4-2.3-2.4-2.7c-3.2-1.3-6.2-2.9-9.8-3.2
		c-7.8-0.7-15.6-2.1-23.5-2.9c-5-0.5-10-0.6-15-0.7c-6.4-0.1-11.2,3.2-14.1,8.4c-3.4,6.1-6,12.7-8.9,19c-4.7,10.2-7.5,21-10.1,31.8
		c-1.1,4.5-1.4,9.3-2.3,13.9c-1.4,7.7-4.4,14.8-7.7,21.8c-4.4,9.2-8.7,18.5-12.9,27.7c-6.3,13.9-12.5,27.9-18.7,41.9
		c-1.5,3.5-2.7,7.1-4.1,10.7c-0.2-0.1-0.4-0.1-0.6-0.2c0.9-1.2,1.9-2.3,2.6-3.6c6.7-10.7,11.5-22.4,16.2-34.1
		c3.3-8.1,7.1-16,10.5-24.1c6.1-14.4,13.3-28.3,17.6-43.4c3.6-12.8,7.3-25.6,11.2-38.3c2.4-7.8,5.5-15.3,10-22.1
		c1.3-2,2.9-3.8,4.7-5.4c2.6-2.4,5.9-2.4,9.2-2.3c8.4,0.2,16.4,2.4,24.4,4.6c4.9,1.3,9.8,3,14.5,4.7c1.7,0.6,3.5,1.7,4.8,3
		c0.6,0.6,0.8,2.3,0.5,3.3c-1.5,4.9-3.1,9.7-4.8,14.5c-4.1,11.4-8.6,22.6-12.2,34.2c-2,6.4-2.6,13.3-3.8,19.9
		c-2,11.4-5.5,22.3-10.3,32.8c-5.1,11.3-10.2,22.5-15.7,33.5c-8.6,17.2-17.4,34.4-26.6,51.4c-3.1,5.7-7.3,10.8-11.5,15.8
		c-3.9,4.6-9.1,6.7-15.3,4.9c-5.3-1.5-10.6-3-15.8-4.7c-6.8-2.2-13.6-4.6-20.3-7.1c-2.2-0.8-4.2-1.9-6.2-3c-3.2-1.9-4.3-5.1-2.3-8.4
		c2.9-4.9,6.2-9.6,9.3-14.4c0.4-0.7,0.9-1.3,1.4-1.9C11.1,232.8,4.8,238,1.9,246z M70.8,284.8c-3.2-3.8-6.3-7.8-9.6-11.6
		c-0.8-0.9-2.2-1.4-3.4-1.5c-9.9-0.8-19.8-1.9-29.3-5c-6.3-2.1-12.4-4.5-18.5-7c-2.1-0.8-4-2.3-6.3-3.6c0.6,1.1,1.1,1.9,1.6,2.6
		c5.9,8.3,12.6,15.9,20.3,22.7c3.1,2.7,6.5,4.8,10.5,6c14.1,4.4,28.2,8.9,42.4,13.3c1.9,0.6,3.9,0.6,5.8,0.9
		c0.1-0.2,0.2-0.5,0.3-0.7C80,295.6,75.4,290.2,70.8,284.8z M155.4,48.2c1.7-4,3.4-7.8,5-11.7c0.3-0.8,0-1.8-0.1-2.7
		c-0.9,0.4-2.2,0.6-2.7,1.3c-2.3,3.6-4.4,7.3-6.7,11.2C152.5,47,153.7,47.5,155.4,48.2z M165,22.5c0.3,0.1,0.5,0.3,0.8,0.4
		c3.3-6.1,6.5-12.3,9.8-18.4c-0.2-0.1-0.4-0.2-0.6-0.3C171.7,10.3,168.3,16.4,165,22.5z M164.7,24.5c-0.2-0.1-0.4-0.2-0.6-0.3
		c-1.4,2.5-2.7,5.1-4.1,7.6c0.2,0.1,0.4,0.2,0.6,0.3C162,29.6,163.4,27,164.7,24.5z"/>
	<path d="M41.8,189.2c0.7-1.9,1.7-3.4,4-3c3.3,0.6,6.6,1.2,9.8,2.1c1,0.3,2.1,1.5,2.3,2.4c0.6,3.3-3.6,7.1-6.8,6.3
		c-2.3-0.6-4.5-1.5-6.7-2.5C42.1,193.5,40.9,191.8,41.8,189.2C41.8,189.2,41.8,189.2,41.8,189.2z M44.9,193.1c2,0.9,4.1,1.7,6.2,2.3
		c2.3,0.6,5-1.5,5-3.9c0-0.6-0.7-1.7-1.3-1.8c-3.1-0.8-6.1-1.5-9.3-2c-1.6-0.3-3,2.1-2.2,4.1C43.8,192.1,44.2,192.8,44.9,193.1z"/>
	<path d="M124.3,128.3c-6.7-1.6-13.5-3.1-20.2-4.7c-8.5-1.9-16.9-3.9-25.4-5.8c-1.7-0.4-2.4-1.1-2.1-2.9c0.9-4.9,1.6-9.9,2.4-14.8
		c0.3-2.4,1.4-2.9,3.8-2.5c9.1,1.8,18.3,3.5,27.4,5.2c5.2,0.9,10.4,1.8,15.5,2.6c2.9,0.5,3.9,1.4,3.5,3.5c-0.9,6-1.8,11.9-2.8,17.9
		c-0.1,0.6-0.4,1.1-0.6,1.8C125.2,128.5,124.7,128.4,124.3,128.3z M127.6,107.6c-15.3-2.9-30.9-5.9-46.8-8.9c-1,5.8-2,11.4-3,17.3
		c15.8,3.7,31.4,7.3,47,10.9C125.7,120.5,126.6,114.3,127.6,107.6z"/>
	<path d="M40.9,221.3c8.5,2.6,17,5.3,25.5,7.9c3.1,0.9,6.3,1.5,9.4,2.6c2,0.7,2.4,2.4,1.1,4c-3.2,3.9-6.5,7.8-9.9,11.6
		c-1.2,1.3-2.6,1.6-4.3,1.2c-3.5-0.9-7.2-1.5-10.7-2.7c-9.5-3.1-19-6.4-28.5-9.6c-3.7-1.3-4.8-3.2-2.3-6.2c2.9-3.6,6.6-6.5,8.9-8.7
		C34.9,219.9,37.9,220.4,40.9,221.3z M71.5,231.8c-9.1-2.7-18.2-5.2-27.3-7.8c-0.7-0.2-1.4-0.4-2.1-0.6c-9.2-3.7-13.4,0.3-19.3,7.1
		c-2,2.3-1.4,3.6,1.5,4.6c9.3,3.2,18.7,6.4,28,9.5c3.4,1.1,6.9,1.8,10.4,2.5c0.9,0.2,2.4,0,3-0.7c3.6-3.9,7.1-7.9,11-12.3
		C74.7,233.1,73.2,232.2,71.5,231.8z"/>
	<path d="M99.1,91.4c-2.7-1.3-4.3-3.5-5.1-6.3c-1.3-4.9-0.9-9.8,1.1-14.5c1.2-2.9,3-5.6,5.8-7.1c7.2-3.8,14.5-4,21.9-0.1
		c7.3,3.8,10.1,13.8,6.7,19.6c-2.9,4.9-7.2,8.2-11.5,10.4C110.9,95.9,104.9,94.1,99.1,91.4z M94.9,81.5c0.3,5,2.8,8.3,7.6,9.8
		c4.2,1.4,8.5,2.7,12.8,1.3c6.2-2,11.2-5.7,13.4-11.9c2.3-6.3-1.8-13.7-8.2-16.6c-5.3-2.5-10.6-2.3-16.2-0.4
		C97.2,65.8,94.4,73.6,94.9,81.5z"/>
	<path d="M107,138.9c3.3,0.1,6.6,0.8,9.9,1.3c2.1,0.4,3.9,1.4,3.9,3.8c0,3.2-2.5,6.7-4.8,7.1c-3.9,0.5-7.8,0.3-11.3-1.8
		c-1.1-0.7-2-1.8-2.4-2.2C100.6,143.3,103.5,138.9,107,138.9z M112.3,140.8c-1.9-0.1-3.9-0.5-5.8-0.3c-1.7,0.2-2.6,1.5-3,3.3
		c-0.4,1.6-0.1,2.9,1.3,3.8c3.4,2.3,7.3,2.7,11.2,1.9c1.7-0.3,3.2-3.1,3.2-5.2c0-2-1.6-2.4-3-2.8c-1.3-0.4-2.6-0.5-3.9-0.8
		L112.3,140.8z"/>
	<path d="M75.5,162.2c4,0.6,7.9,1.7,11.8,2.7c0.7,0.2,1.6,1,1.8,1.7c0.5,1.7-1.8,5.6-3.4,6.1c-3.7,1.2-7.6,1.3-11.2,0
		c-1.4-0.5-2.6-1.8-3.8-2.8C69.7,166.1,72.2,161.7,75.5,162.2z M81.8,165.1c-2-0.5-4-1.1-6-1.3c-2.1-0.2-3.2,1.2-3.6,3.1
		c-0.3,1.8,0.3,3.5,2.1,4.1c3.6,1.2,7.4,1.6,10.9-0.1c0.9-0.4,1.5-2.1,1.7-3.3c0.1-0.5-1-1.5-1.8-1.9c-1-0.5-2.3-0.5-3.4-0.7
		L81.8,165.1z"/>
	<path d="M100,152.8c4.5,0.3,9,1.3,13.5,2.2c0.5,0.1,1.1,1.2,1,1.7c-0.5,4.7-3.3,9.8-10,8.2c-3.1-0.8-6-2-7.4-4.3
		C95.7,156.7,97.4,152.6,100,152.8z M112.7,157.6c0.1-0.6-0.8-1.8-1.5-2c-3.1-0.7-6.2-1.2-9.4-1.4c-1.1-0.1-2.5,0.8-3.3,1.6
		c-1.2,1.3-0.7,3,0.3,4.4c1.6,2.3,7.1,4,10.2,2.9C111.1,162.2,112.5,160.2,112.7,157.6z"/>
	<path d="M41,199.8c2.9,0.3,5.8,1,8.6,1.8c1,0.3,2.5,1.5,2.5,2.3c0.1,2-0.4,4.1-1.1,6.1c-0.3,0.9-1.6,1.9-2.4,1.9
		c-2.8,0-5.6-0.2-8.2-0.9c-1.9-0.5-3.5-2-4.6-2.7C34.4,204.2,37.5,199.5,41,199.8z M40,201.5c-0.8,0-1.8,1.6-2.4,2.7
		c-0.7,1.3-1,2.8,0.4,3.9c3,2.3,6.6,2.8,10.2,2.3c0.7-0.1,1.5-1.1,1.7-1.9c0.4-1.3,0.5-2.7,0.7-4.2C47.5,201.7,43.8,201.4,40,201.5z
		"/>
	<path d="M69.9,175.3c4.3-0.1,8.4,0.6,12.1,3.1c1.5,1,2.8,1.8,2.1,4c-0.8,2.5-2.6,4.5-4.6,4.5c-4.1,0.1-8.1-0.5-11.7-2.6
		c-0.8-0.5-1.6-1.2-1.9-1.5C64.7,179.6,67.4,175.3,69.9,175.3z M82.4,182c0.1-0.8-0.9-2-1.8-2.6c-3.1-2.2-6.8-2.5-10.4-2.4
		c-2.2,0-2.6,2-2.9,3.5c-0.2,0.8,0.8,2.2,1.6,2.7c3.4,2,7.2,2.2,11.5,2.2C81.1,184.3,82.2,183.2,82.4,182z"/>
	<path d="M95.7,166.5c3,0.3,6,0.9,8.8,1.9c1.5,0.6,3.3,2.1,3.8,3.5c0.9,2.7-3.9,8.3-6.9,8.4c-2.8,0.1-9.3-4.4-10.2-7
		C90.1,170.1,92.5,166.2,95.7,166.5z M101.5,178.7c1.7,0,5.1-3.6,5.2-5.7c0.2-2.4-1.7-3.1-3.4-3.6c-2.3-0.6-4.6-1.1-7-1.4
		c-2.6-0.3-4.5,2.2-3.6,4.7C93.6,175,99.1,178.8,101.5,178.7z"/>
	<path d="M85.5,182.5c0.4-2.7,2-4,4.7-3.4c3.4,0.8,6.8,1.8,10,3c0.7,0.3,1.7,1.6,1.6,2.2c-0.6,2.2-1.4,4.3-2.5,6.3
		c-0.4,0.7-1.8,1.4-2.6,1.2c-3.1-0.7-6.2-1.6-9.3-2.6c-0.9-0.3-1.4-1.3-2.3-2.2C85.3,185.4,85.3,183.9,85.5,182.5z M88.3,187.9
		c2.6,0.9,5.2,1.8,7.9,2.3c1.7,0.4,3.4-1.6,3.7-3.9c0.3-1.8-0.1-3.2-2.2-3.7c-2.2-0.5-4.3-1.4-6.4-1.7c-1.2-0.2-3.2-0.2-3.6,0.5
		c-0.9,1.4-0.9,3.2-1.2,4.8C87.3,187,87.7,187.7,88.3,187.9z"/>
	<path d="M76.8,198.9c-1.1,2-2.8,3.4-5.2,2.9c-3-0.7-6-1.5-8.8-2.6c-3.1-1.2-3.6-3.5-1.9-6.3c1.1-1.8,2.6-2.9,4.8-2.3
		c4.1,1.2,8.1,2.5,12.6,3.9C77.6,196.2,77.5,197.7,76.8,198.9z M75.7,197c0.1-0.6-1.2-1.9-2.2-2.3c-2.6-1-5.2-1.8-7.9-2.6
		c-2.1-0.6-3.2,0.6-4,2.5c-0.8,2,0.4,2.9,1.9,3.4c2.7,0.9,5.5,1.6,8.2,2.3c0.4,0.1,0.9,0,2-0.1C74.4,199.3,75.5,198.2,75.7,197z"/>
	<path d="M78.7,208.9c2.6,0.5,5.3,1.3,7.8,2.1c1.6,0.5,3.7,1,3.5,3.3c-0.3,2.8,0,6.1-3.7,7c-1.4,0.3-3,0.2-4.4-0.1
		c-3.4-0.9-6.7-2.2-8.4-5.8C72.3,212.4,75.5,208.3,78.7,208.9z M88.2,214.9c0-0.7-1-1.9-1.9-2.2c-2.5-0.9-5.1-1.6-7.8-2.2
		c-0.7-0.2-2.1,0.2-2.4,0.7c-0.6,1.2-1.3,2.8-1,3.9c1.1,3.1,7.8,5.7,11,4.5C88.6,218.9,88.1,216.6,88.2,214.9z"/>
	<path d="M82.8,159.2c-5.4-1.2-6.4-3.9-4-9.3c0.4-0.9,1.8-1.9,2.7-1.8c4.2,0.2,8.4,0.9,12,3.5c0.5,0.4,1.1,1.1,1,1.6
		c-0.3,2.9-1.7,5.3-5.5,6.9C87.6,160,85.1,159.8,82.8,159.2z M85.6,150.4c-4.2-1.9-6.1-0.7-6.4,3.7c-0.1,2,1.2,2.8,2.6,3.2
		c1.9,0.6,3.9,1,5.8,1.2c2,0.3,4.8-1.7,5-3.6c0.1-0.9-0.5-2.5-1.3-2.8C89.5,151.3,87.4,150.9,85.6,150.4L85.6,150.4z"/>
	<path d="M64,143c4.4,0.4,8.9,0.9,12.5,3.9c0.5,0.4,1.1,1.3,0.9,1.7c-0.7,1.6-1.4,3.3-2.6,4.5c-2.9,3.2-12.4,0.9-13.8-3.3
		C59.9,146.7,61.4,142.7,64,143z M75.1,149.1c0.4-1.8-1.2-2.2-2.3-2.5c-2.7-0.9-5.5-1.5-8.3-2c-0.6-0.1-1.9,0.7-2,1.2
		c-0.1,1.5-0.3,3.3,0.4,4.5c1.2,2,7,3.3,9.2,2.5C74.1,152.3,74.8,150.8,75.1,149.1z"/>
	<path d="M94.2,205.4c-0.4,0.8-1.6,1.6-2.4,1.6c-4.1,0.1-8.1-0.7-11.3-3.6c-1.7-1.5-2-3-0.8-5c1.2-1.9,2.5-3.3,5-2.5
		c3.7,1.2,7.5,2.3,12,3.7C95.7,201.9,95.1,203.7,94.2,205.4z M94,202.1c0.1-0.7-1-2-1.9-2.3c-2.7-1-5.6-1.8-8.5-2.3
		c-0.7-0.1-1.9,0.9-2.5,1.6c-0.4,0.6-0.6,1.9-0.2,2.5c1.4,2.5,8.1,4.7,11.5,3.5C92.8,204.4,93.8,203.3,94,202.1z"/>
	<path d="M54.8,165.2c-0.7-1.4-0.4-3.6,0.2-5.1c0.4-1,2.3-2.2,3.3-2c3.8,0.7,7.5,1.9,11.3,3c0.5,0.2,1.2,0.8,1.3,1.2
		c0.5,2.6-1.5,5.7-4.2,6.7C64,170,56,167.7,54.8,165.2z M63.3,160.5c-1.4-0.3-2.8-0.8-4.2-0.8c-1,0-2.5,0.4-2.8,1
		c-0.5,1.1-0.6,2.7-0.1,3.8c1.1,2.2,8.2,3.8,10.4,2.8c1.7-0.8,2.6-2.1,2.1-3.7c-0.3-0.8-1.6-1.4-2.5-2c-0.7-0.4-1.5-0.4-2.3-0.6
		C63.7,160.7,63.5,160.6,63.3,160.5z"/>
	<path d="M49,178.4c-1.9-2.9,0.2-7.6,3.7-7.3c3.1,0.2,6.1,1.3,9.1,2.3c1,0.3,2.2,1.3,2.6,2.2c0.8,2-1.4,6-3.4,6.7
		C57.6,183.5,50.9,181.3,49,178.4z M62.5,177.6c0.1-0.9-0.7-2.6-1.4-2.9c-2.7-1-5.6-1.6-8.4-2.1c-0.6-0.1-2,0.7-2.1,1.3
		c-0.3,1.2-0.5,2.8,0,3.8c1.4,2.4,7.1,4,10.4,2.8C61.3,179.9,62.3,178.8,62.5,177.6z"/>
	<path d="M87.3,144.4c-3.7-1.4-4.6-6.3-1.6-9c0.5-0.4,1.3-0.9,1.9-0.8c3.3,0.6,6.6,1.2,9.7,2.2c1.6,0.5,3.1,1.8,2.9,3.9
		c-0.2,2.3-1.4,3.8-3.6,4.6C93.3,146.5,90.3,145.6,87.3,144.4z M93.4,137.4c-1.9-0.4-3.8-1-5.8-1.1c-0.5,0-1.5,1-1.6,1.6
		c-0.2,1.4-0.5,3.6,0.2,4.1c2.9,1.9,6.1,3.1,9.7,1.8c1.5-0.5,2.8-1.4,2.5-3c-0.2-1-1.3-2.1-2.2-2.7
		C95.5,137.6,94.3,137.6,93.4,137.4C93.3,137.4,93.4,137.4,93.4,137.4z"/>
	<path d="M39.5,250.5c-2-0.7-4-1.6-5.8-2.7c-0.7-0.4-0.9-1.6-1.4-2.4c1-0.3,2.3-1.1,3.1-0.8c2.9,1,5.6,2.5,8.6,3.9
		C42.7,250.7,41.1,251,39.5,250.5z M34.4,245.7c-0.1,0.3-0.2,0.5-0.3,0.8c2.1,0.9,4.2,1.9,6.3,2.8c0.1-0.3,0.2-0.6,0.3-0.9
		C38.6,247.5,36.5,246.6,34.4,245.7z"/>
	<path d="M65.3,290.4c-0.6,0.5-1.2,1.3-1.9,1.3c-1,0.1-2-0.4-3-0.7c-7.7-2.7-15.3-5.4-23-8c-1.9-0.6-2.4-1.8-2.7-3.4
		c-0.2-1.3,0.3-1.7,1.6-1.3c5.6,1.6,11.2,3.2,16.7,4.7c2.3,0.6,4.6,1.8,6.9,1.7c1.6-0.1,2.4,0.4,3,1.3c0.8,1.1,1.1,2.5,1.7,3.8
		C65,290.1,65.2,290.2,65.3,290.4z M63.1,290.2c-0.8-2.6-2.4-3.7-4.7-4.3c-7.2-1.8-14.4-3.7-21.6-5.6c-0.1,0.2-0.1,0.4-0.2,0.6
		C45.4,284,54.2,287,63.1,290.2z"/>
	<path d="M69.3,141.5c-3.7-1.4-4.6-6.3-1.6-9c0.5-0.4,1.3-0.9,1.9-0.8c3.3,0.6,6.6,1.2,9.7,2.2c1.6,0.5,3.1,1.8,2.9,3.9
		c-0.2,2.3-1.4,3.8-3.6,4.6C75.3,143.6,72.3,142.6,69.3,141.5z M75.4,134.4c-1.9-0.4-3.8-1-5.8-1.1c-0.5,0-1.5,1-1.6,1.6
		c-0.2,1.4-0.5,3.6,0.2,4.1c2.9,1.9,6.1,3.1,9.7,1.8c1.5-0.5,2.8-1.4,2.5-3c-0.2-1-1.3-2.1-2.2-2.7
		C77.5,134.6,76.3,134.6,75.4,134.4C75.3,134.4,75.4,134.4,75.4,134.4z"/>
</g>
</svg>
